<svg width="2236" height="816" viewBox="0 0 2236 816" fill="none" xmlns="http://www.w3.org/2000/svg">
<rect width="2236" height="816" fill="#F5F5F5"/>
<rect width="3020" height="2020" transform="translate(-334 -619)" fill="white"/>
<path d="M330.6 226.26C326.44 226.85 321.87 227.6 316.93 228.55C311.99 229.5 306.61 230.67 300.93 232.09C295.25 233.51 289.13 235.24 282.78 237.26C276.43 239.28 269.63 241.7 262.66 244.47C260.74 245.24 258.85 246.01 256.98 246.8C255.11 247.59 253.27 248.39 251.45 249.2C249.63 250.01 247.83 250.83 246.05 251.66C244.27 252.49 242.52 253.33 240.8 254.18C233.835 257.535 227.542 262.134 222.23 267.75C217.37 272.889 213.649 278.995 211.31 285.67C209.078 292.105 208.45 298.987 209.48 305.72C210.632 312.858 213.581 319.586 218.05 325.27L218.15 325.4L218.25 325.53L218.35 325.66C218.389 325.699 218.422 325.743 218.45 325.79C226.14 335.7 233.96 345.79 242.32 355.58C250.717 365.572 259.81 374.959 269.53 383.67C279.466 392.564 290.395 400.281 302.1 406.67C314.418 413.335 327.645 418.163 341.36 421C342.51 421.24 343.72 421.47 344.99 421.7C346.26 421.93 347.6 422.15 348.99 422.36C350.38 422.57 351.84 422.77 353.36 422.95C354.88 423.13 356.44 423.3 358.07 423.44C358.705 423.501 359.342 423.528 359.98 423.52C360.6 423.52 361.22 423.52 361.82 423.43C362.417 423.378 363.011 423.295 363.6 423.18C364.18 423.07 364.75 422.94 365.31 422.78C368.51 421.861 371.422 420.14 373.77 417.78C375.996 415.537 377.652 412.794 378.6 409.78C379.53 406.868 379.658 403.759 378.97 400.78C378.191 397.603 376.477 394.733 374.05 392.54C370.423 389.207 366.757 385.693 363.05 382C359.343 378.307 355.677 374.507 352.05 370.6C348.39 366.66 344.743 362.573 341.11 358.34C337.477 354.107 333.9 349.74 330.38 345.24C326.147 339.84 322.2 334.507 318.54 329.24C314.88 323.973 311.497 318.893 308.39 314C305.277 309.06 302.407 304.26 299.78 299.6C297.17 294.98 294.78 290.5 292.59 286.2C293.47 285.31 294.41 284.39 295.4 283.45C296.39 282.51 297.4 281.57 298.54 280.62C299.68 279.67 300.8 278.7 302.03 277.73C303.26 276.76 304.52 275.81 305.86 274.85C307.933 273.37 309.97 272.017 311.97 270.79C313.97 269.57 315.97 268.46 317.81 267.46C319.65 266.46 321.52 265.57 323.26 264.77C325 263.97 326.65 263.27 328.26 262.64C327.91 261.1 327.58 259.44 327.26 257.64C326.94 255.84 326.78 253.96 326.65 251.97C326.52 249.98 326.49 247.89 326.57 245.72C326.649 243.473 326.856 241.233 327.19 239.01C327.37 237.77 327.59 236.57 327.84 235.41C328.09 234.25 328.35 233.14 328.64 232.07C328.93 231 329.25 229.98 329.57 229C329.89 228.02 330.23 227.09 330.57 226.2" fill="#006CFF"/>
<g clip-path="url(#clip0_0_1)">
<path d="M541.66 292.3C539.599 292.703 537.721 293.754 536.3 295.3C534.924 296.824 534.027 298.72 533.72 300.75C533.389 302.988 533.648 305.273 534.47 307.38C535.464 309.876 537.05 312.093 539.09 313.84C542.19 316.567 545.34 319.42 548.54 322.4C551.74 325.38 554.977 328.493 558.25 331.74C561.53 334.993 564.84 338.38 568.18 341.9C571.52 345.42 574.89 349.087 578.29 352.9C582.377 357.513 586.277 362.1 589.99 366.66C593.72 371.22 597.27 375.75 600.65 380.2C604.03 384.65 607.26 389.09 610.3 393.41C613.34 397.73 616.3 401.99 618.98 406.12C618.6 407.12 618.2 408.12 617.75 409.12C617.3 410.12 616.82 411.19 616.29 412.26C615.76 413.33 615.18 414.43 614.56 415.54C613.94 416.65 613.26 417.79 612.56 418.93C611.43 420.69 610.27 422.34 609.1 423.86C607.93 425.38 606.73 426.86 605.55 428.13C604.37 429.4 603.18 430.65 602.03 431.75C600.88 432.85 599.74 433.85 598.67 434.75C599.337 436.49 600.033 438.387 600.76 440.44C601.47 442.51 602.16 444.73 602.76 447.1C603.36 449.47 604.04 452 604.59 454.67C605.14 457.34 605.59 460.18 606.03 463.15C606.24 464.75 606.41 466.32 606.55 467.85C606.69 469.38 606.8 470.85 606.87 472.32C606.94 473.79 606.99 475.18 607.01 476.54C607.03 477.9 607.01 479.22 607.01 480.48C610.35 478.88 613.94 477.03 617.7 474.88C621.46 472.73 625.31 470.33 629.28 467.59C633.25 464.85 637.21 461.85 641.22 458.46C645.337 454.985 649.27 451.297 653 447.41C654 446.31 655.06 445.22 656.05 444.12C657.04 443.02 657.98 441.94 658.91 440.85C659.84 439.76 660.73 438.68 661.6 437.6C662.47 436.52 663.3 435.45 664.11 434.38C667.511 429.823 669.832 424.554 670.9 418.97C672.024 413.186 672.123 407.248 671.19 401.43C670.241 395.325 668.377 389.399 665.66 383.85C662.854 378.06 659.205 372.718 654.83 368L654.73 367.9L654.64 367.8C654.609 367.764 654.576 367.731 654.54 367.7L654.45 367.6C647.21 359.86 639.96 352.11 632.58 344.69C625.2 337.27 617.74 330.23 609.96 323.79C602.337 317.393 594.18 311.658 585.58 306.65C576.933 301.668 567.712 297.756 558.12 295C557.33 294.77 556.49 294.54 555.61 294.31C554.73 294.08 553.81 293.85 552.85 293.62L549.85 292.96C548.8 292.75 547.72 292.54 546.59 292.34C546.153 292.26 545.713 292.203 545.27 292.17C544.85 292.145 544.43 292.145 544.01 292.17C543.613 292.17 543.215 292.19 542.82 292.23C542.43 292.23 542.05 292.33 541.68 292.4" fill="#006CFF"/>
<path d="M794.06 270.56L794.12 269.91H770L752 475.37C751.774 477.428 751.989 479.511 752.63 481.48C753.272 483.449 754.326 485.258 755.721 486.788C757.117 488.318 758.822 489.533 760.724 490.352C762.625 491.172 764.68 491.577 766.75 491.54H872.27L874.2 469.54H776.66L794.06 270.56Z" fill="#003E80"/>
<path d="M980.87 325.16C956.42 325.16 935.25 334.16 919.66 351.21C905.95 366.21 897.35 386.52 895.43 408.45L895.06 412.67C892.89 437.46 899.56 460.31 913.35 475.36C926.35 489.5 944.62 496.67 967.78 496.67C1005.78 496.67 1034.19 477.09 1043.87 444.3L1044.09 443.54H1021.72L1021.58 443.96C1014.78 465.78 990.58 475.55 969.58 475.55C953.68 475.55 941.09 470.81 932.16 461.48C922.04 450.92 917.16 434.9 917.86 415.14H1049.2L1050.28 402.81C1052.21 380.69 1045.92 359.92 1033.02 345.81C1020.58 332.31 1002.56 325.16 980.87 325.16ZM920.43 396.43C927.99 364.55 949.35 346.28 979.13 346.28C1008.91 346.28 1027.2 365.01 1027.78 396.43H920.43Z" fill="#003E80"/>
<path d="M1145.7 325.76C1110.34 325.76 1084.9 344.91 1082.4 373.42C1080.24 398.11 1096.76 414.3 1127.72 417.85L1145.72 419.66C1168.48 422.11 1178.9 430.59 1177.59 445.59C1176 463.79 1158.35 475.59 1132.59 475.59C1117.48 475.59 1105.96 471.88 1099.29 464.88C1096.94 462.364 1095.13 459.389 1093.99 456.141C1092.84 452.894 1092.39 449.444 1092.64 446.01V445.39H1070.32V445.95C1069.41 459.53 1072.99 470.76 1080.99 479.31C1091.26 490.31 1108.52 496.11 1130.91 496.11C1169.1 496.11 1197.58 475.52 1200.16 446.04C1202.43 420.04 1184.26 403.52 1148.98 399.49L1130.98 397.68C1112.51 395.68 1103.76 387.68 1104.98 373.86C1106.14 360.55 1116.98 346.32 1143.98 346.32C1156.75 346.32 1166.59 349.64 1172.45 355.91C1174.54 358.185 1176.13 360.874 1177.11 363.803C1178.09 366.732 1178.45 369.835 1178.15 372.91V373.54H1200.48V372.99C1201.35 360.1 1197.95 349.47 1190.37 341.37C1180.91 331.13 1165.45 325.76 1145.7 325.76Z" fill="#003E80"/>
<path d="M1300.92 325.76C1265.55 325.76 1240.11 344.91 1237.62 373.42C1235.46 398.11 1251.98 414.3 1282.94 417.85L1300.94 419.66C1323.7 422.11 1334.12 430.59 1332.81 445.59C1331.22 463.79 1313.57 475.59 1287.81 475.59C1272.7 475.59 1261.18 471.88 1254.51 464.88C1252.15 462.367 1250.35 459.392 1249.2 456.144C1248.06 452.895 1247.6 449.444 1247.86 446.01V445.39H1225.54V445.95C1224.62 459.53 1228.21 470.76 1236.21 479.31C1246.48 490.31 1263.74 496.11 1286.13 496.11C1324.32 496.11 1352.8 475.52 1355.38 446.04C1357.65 420.04 1339.48 403.52 1304.2 399.49L1286.2 397.68C1267.73 395.68 1258.98 387.68 1260.2 373.86C1261.37 360.55 1272.2 346.32 1299.2 346.32C1311.97 346.32 1321.81 349.64 1327.67 355.91C1329.76 358.185 1331.35 360.874 1332.33 363.803C1333.31 366.732 1333.67 369.835 1333.37 372.91V373.54H1355.7V372.99C1356.57 360.1 1353.17 349.47 1345.59 341.37C1336.13 331.13 1320.67 325.76 1300.92 325.76Z" fill="#003E80"/>
<path d="M1668.89 325.16C1637.28 325.16 1616.23 339.4 1604.14 351.34C1588.6 366.69 1578.62 387.61 1576.77 408.75L1576.4 412.98C1574.4 435.64 1581.4 457.55 1595.68 473.08C1609.96 488.61 1629.98 496.67 1653.99 496.67C1709.07 496.67 1742.55 453.6 1746.1 413.08L1746.47 408.85C1748.47 386.36 1741.38 364.52 1727.1 348.93C1712.82 333.34 1692.72 325.16 1668.89 325.16ZM1722.75 410.86C1721.19 428.65 1714.1 444.8 1702.75 456.32C1690.6 468.7 1674.33 475.24 1655.75 475.24C1638.59 475.24 1624.29 469.54 1614.41 458.75C1603.71 447.08 1598.74 430.11 1600.41 410.97C1601.97 393.11 1609.17 376.97 1620.67 365.44C1632.8 353.3 1648.85 346.89 1667.07 346.89C1684.31 346.89 1698.73 352.67 1708.76 363.62C1719.43 375.25 1724.4 392 1722.75 410.86Z" fill="#003E80"/>
<path d="M1770.35 491.54H1799.94L1802.66 460.45H1773.07L1770.35 491.54Z" fill="#003E80"/>
<path d="M1910.16 328.78C1897.57 328.78 1881.67 329.57 1867.64 330.9L1867.14 330.95L1865.29 352.09L1866.01 352.02C1879.38 350.76 1899.7 349.91 1916.57 349.91C1929.34 349.91 1938.71 353.06 1944.4 359.27C1949.88 365.27 1952.14 374.27 1951.1 386.1L1950.49 393.1H1906.34C1866.08 393.1 1841.34 411.56 1838.55 443.77C1837.25 458.64 1840.91 471.25 1849.14 480.23C1858.45 490.39 1873.14 495.76 1891.73 495.76C1918.36 495.76 1938.22 483.94 1948.05 462.36L1945.5 491.53H1964.82L1973.82 388.31C1975.56 368.37 1972.21 354.09 1963.57 344.66C1953.67 333.83 1936.69 328.78 1910.16 328.78ZM1861.76 444.19C1863.52 424.03 1879.45 411.51 1903.33 411.51H1948.88L1947.09 431.99C1942.15 472.12 1910.79 476.45 1897.54 476.45C1884.67 476.45 1874.54 472.86 1868.34 466.06C1863.27 460.52 1861 453 1861.76 444.19Z" fill="#003E80"/>
<path d="M2010.74 349.91H2036.4L2024.07 490.89L2024.01 491.54H2047.56L2061.58 331.25L2061.64 330.6H2012.43L2010.74 349.91Z" fill="#003E80"/>
<path d="M2063 270.55H2033.41L2030.69 301.64H2060.28L2063 270.55Z" fill="#003E80"/>
<path d="M404.89 162.06C401.63 162.259 398.398 162.778 395.24 163.61C392.201 164.401 389.26 165.528 386.47 166.97C383.771 168.373 381.26 170.114 379 172.15C376.762 174.189 374.838 176.548 373.29 179.15V179.25L373.23 179.34V179.44L373.17 179.53C368.93 186.72 364.55 194.15 360.51 201.88C356.265 209.834 352.644 218.105 349.68 226.62C346.576 235.528 344.669 244.809 344.01 254.22C343.35 264.579 344.459 274.974 347.29 284.96C347.54 285.83 347.81 286.74 348.11 287.7C348.41 288.66 348.74 289.7 349.11 290.7C349.48 291.7 349.87 292.83 350.31 293.95C350.75 295.07 351.22 296.24 351.74 297.43C352.525 299.277 353.679 300.944 355.13 302.33C356.535 303.671 358.167 304.751 359.95 305.52C361.733 306.298 363.625 306.797 365.56 307C367.48 307.211 369.421 307.14 371.32 306.79C372.678 306.537 374.003 306.131 375.27 305.58C376.506 305.038 377.668 304.342 378.73 303.51C379.783 302.675 380.71 301.691 381.48 300.59C382.274 299.443 382.888 298.182 383.3 296.85C384.487 292.97 385.78 289.047 387.18 285.08C388.57 281.16 390.05 277.21 391.65 273.23C393.25 269.25 394.91 265.35 396.72 261.39C398.53 257.43 400.4 253.56 402.41 249.64C404.8 245 407.24 240.64 409.69 236.44C412.14 232.24 414.55 228.44 416.99 224.82C419.43 221.2 421.79 217.82 424.16 214.64C426.53 211.46 428.82 208.55 431.08 205.79C432.08 205.97 433.23 206.18 434.37 206.41C435.51 206.64 436.68 206.91 437.89 207.2C439.1 207.49 440.34 207.82 441.62 208.2C442.9 208.58 444.2 208.95 445.54 209.38C447.6 210.047 449.56 210.743 451.42 211.47C453.28 212.197 455.037 212.933 456.69 213.68C458.35 214.433 459.903 215.183 461.35 215.93C462.8 216.67 464.14 217.4 465.35 218.1C466.35 217.33 467.49 216.53 468.73 215.72C469.97 214.91 471.32 214.09 472.8 213.29C474.28 212.49 475.8 211.72 477.56 210.97C479.32 210.22 481.08 209.54 483.02 208.9C484.02 208.56 485.1 208.25 486.12 207.97C487.14 207.69 488.12 207.45 489.12 207.23C490.12 207.01 491.04 206.83 491.96 206.66C492.88 206.49 493.77 206.35 494.64 206.23C492.05 204.02 489.15 201.64 485.95 199.15C482.75 196.66 479.24 194.05 475.42 191.39C471.6 188.73 467.47 186.01 463.02 183.28C458.57 180.55 453.78 177.8 448.67 175.09C447.277 174.363 445.89 173.647 444.51 172.94C443.13 172.24 441.76 171.57 440.4 170.94C439.04 170.31 437.69 169.63 436.4 169.01C435.11 168.39 433.72 167.78 432.4 167.2C430.182 166.215 427.908 165.361 425.59 164.64C423.324 163.948 421.02 163.387 418.69 162.96C416.416 162.542 414.118 162.265 411.81 162.13C409.559 161.99 407.301 161.99 405.05 162.13" fill="#006CFF"/>
<path d="M553.82 390.22C552.712 390.558 551.658 391.053 550.69 391.69C549.703 392.348 548.822 393.154 548.08 394.08C547.279 395.073 546.635 396.182 546.17 397.37C545.643 398.717 545.307 400.13 545.17 401.57C544.74 405.94 544.22 410.47 543.59 415.13C542.96 419.79 542.24 424.7 541.39 429.7C540.54 434.7 539.56 439.95 538.45 445.3C537.34 450.65 536.07 456.3 534.66 461.96C532.94 468.913 531.09 475.707 529.11 482.34C527.11 489.08 525.013 495.643 522.82 502.03C520.61 508.51 518.3 514.8 515.95 520.89C513.6 526.98 511.14 533.02 508.68 538.76C507.36 538.76 505.97 538.76 504.53 538.76C503.09 538.76 501.58 538.66 500.03 538.55C498.48 538.44 496.86 538.28 495.19 538.07C493.52 537.86 491.82 537.59 490.06 537.27C487.35 536.76 484.75 536.15 482.27 535.46C479.79 534.77 477.43 534 475.2 533.19C472.97 532.38 470.87 531.51 468.91 530.64C466.95 529.77 465.12 528.87 463.44 527.99C462.05 529.76 460.44 531.65 458.76 533.61C457.08 535.57 455.1 537.61 452.99 539.7C450.88 541.79 448.56 543.93 446.05 546.05C443.54 548.17 440.78 550.31 437.84 552.39C436.24 553.51 434.65 554.57 433.09 555.56C431.53 556.55 429.97 557.49 428.46 558.36C426.95 559.23 425.46 560.04 423.98 560.79C422.5 561.54 421.1 562.24 419.72 562.88C423.52 566.45 427.81 570.24 432.57 574.14C437.33 578.04 442.57 582.06 448.29 586.06C454.01 590.06 460.2 594.06 466.86 597.84C473.784 601.811 480.903 605.432 488.19 608.69C490.25 609.61 492.29 610.487 494.31 611.32C496.33 612.153 498.33 612.947 500.31 613.7C502.31 614.46 504.26 615.17 506.2 615.85C508.14 616.53 510.07 617.17 511.97 617.77C515.114 618.762 518.351 619.433 521.63 619.77C524.782 620.095 527.958 620.095 531.11 619.77C534.198 619.45 537.246 618.823 540.21 617.9C543.17 616.976 546.036 615.774 548.77 614.31C552.914 612.088 556.749 609.335 560.18 606.12C563.729 602.802 566.875 599.076 569.55 595.02C572.341 590.796 574.661 586.279 576.47 581.55C578.371 576.578 579.758 571.424 580.61 566.17V565.97V565.78V565.59V565.39C582.93 551.03 585.21 536.95 586.96 523.17C588.709 510.105 589.768 496.957 590.13 483.78C590.471 471.401 589.684 459.017 587.78 446.78C585.866 434.718 582.509 422.93 577.78 411.67C577.39 410.74 576.97 409.77 576.52 408.77C576.07 407.77 575.59 406.71 575.07 405.62C574.55 404.53 574 403.42 573.41 402.26C572.82 401.1 572.2 399.92 571.54 398.7C570.568 396.892 569.312 395.251 567.82 393.84C566.49 392.591 564.959 391.577 563.29 390.84C561.75 390.154 560.102 389.741 558.42 389.62C556.814 389.507 555.201 389.686 553.66 390.15" fill="#006CFF"/>
<path d="M511.73 217.41C506.96 218 502.24 218.78 497.61 219.8C492.955 220.815 488.369 222.125 483.88 223.72C479.35 225.337 474.956 227.314 470.74 229.63C466.374 232.033 462.239 234.835 458.39 238C457.82 238.47 457.23 239 456.62 239.52C456.01 240.04 455.36 240.63 454.71 241.24C454.06 241.85 453.39 242.51 452.71 243.24C452.03 243.97 451.32 244.66 450.62 245.43C449.72 246.377 449.02 247.496 448.562 248.719C448.103 249.942 447.895 251.245 447.95 252.55C448.115 255.197 449.085 257.73 450.73 259.81C452.489 262.108 454.806 263.918 457.46 265.07C460.285 266.317 463.411 266.72 466.46 266.23H466.56L467.15 266.13L467.73 266.03L468.32 265.93L468.91 265.83C472.54 265.24 476.26 264.68 480.07 264.18C483.88 263.68 487.71 263.24 491.65 262.85C495.59 262.46 499.55 262.15 503.65 261.9C507.75 261.65 511.79 261.47 515.97 261.36C521.23 261.233 526.323 261.233 531.25 261.36C536.14 261.45 540.87 261.66 545.44 261.94C550.01 262.22 554.33 262.59 558.53 263.02C562.73 263.45 566.7 263.94 570.53 264.47C571.05 265.3 571.59 266.17 572.13 267.09C572.67 268.01 573.21 268.96 573.75 269.97C574.29 270.98 574.84 271.97 575.37 273.1C575.9 274.23 576.43 275.31 576.95 276.48C577.743 278.293 578.447 280.047 579.06 281.74C579.68 283.45 580.21 285.09 580.67 286.66C581.13 288.23 581.53 289.75 581.86 291.18C582.19 292.61 582.47 293.96 582.7 295.18C584.08 295.66 585.58 296.18 587.17 296.85C588.76 297.52 590.43 298.22 592.17 299.06C593.91 299.9 595.75 300.83 597.64 301.88C599.53 302.93 601.47 304.11 603.46 305.42C604.54 306.12 605.57 306.83 606.56 307.54C607.55 308.25 608.56 308.96 609.43 309.67C610.3 310.38 611.23 311.07 612.06 311.77C612.89 312.47 613.7 313.14 614.46 313.77C614.56 310.67 614.57 307.27 614.46 303.59C614.35 299.91 614.12 296.04 613.72 291.89C613.32 287.74 612.72 283.44 611.96 278.89C611.2 274.34 610.19 269.7 608.96 264.82C608.62 263.51 608.27 262.2 607.91 260.92C607.55 259.64 607.19 258.38 606.81 257.14C606.43 255.9 606.05 254.67 605.66 253.47C605.27 252.27 604.87 251.09 604.47 249.92C602.721 244.99 600.177 240.379 596.94 236.27C593.701 232.132 589.893 228.473 585.63 225.4C581.411 222.336 576.774 219.894 571.86 218.15C567.047 216.421 561.974 215.525 556.86 215.5H556.42C552.79 215.5 549.12 215.5 545.42 215.56C541.72 215.62 537.97 215.67 534.24 215.79C530.51 215.91 526.72 216.09 522.98 216.35C519.24 216.61 515.45 216.97 511.73 217.43" fill="#006CFF"/>
<path d="M256.11 398.93C254.11 403.72 252.05 409.06 250.02 414.93C247.99 420.8 245.91 427.38 244.02 434.4C242.13 441.42 240.29 449.19 238.74 457.4C237.19 465.61 235.85 474.55 234.91 483.89C234.66 486.46 234.43 489.01 234.24 491.53C234.05 494.05 233.9 496.53 233.77 499.07C233.64 501.61 233.55 504.07 233.48 506.48C233.41 508.89 233.38 511.35 233.37 513.75C233.248 523.404 235.349 532.958 239.51 541.67C243.447 549.838 249.308 556.928 256.59 562.33C264 567.794 272.585 571.448 281.66 573C291.519 574.66 301.619 574.19 311.28 571.62L311.5 571.56L311.72 571.5H311.93L312.15 571.44C319.39 569.56 326.59 567.7 333.71 565.8C340.83 563.9 347.71 561.99 354.62 559.98C361.53 557.97 368.15 555.9 374.74 553.68C381.33 551.46 387.68 549.15 393.95 546.68C401.8 543.53 409.43 540.09 416.77 536.28C423.97 532.574 430.931 528.419 437.61 523.84C444.161 519.351 450.371 514.385 456.19 508.98C462.015 503.559 467.393 497.677 472.27 491.39C472.983 490.483 473.713 489.513 474.46 488.48C475.22 487.48 475.99 486.38 476.77 485.25C477.55 484.12 478.36 482.93 479.17 481.69C479.98 480.45 480.79 479.15 481.62 477.79C483.718 474.377 484.71 470.399 484.46 466.4C484.229 462.76 482.997 459.255 480.9 456.27C478.925 453.388 476.141 451.154 472.9 449.85C469.444 448.529 465.63 448.479 462.14 449.71H462L461.29 449.95L460.58 450.2L459.87 450.44L459.15 450.68C454.67 452.18 450.003 453.65 445.15 455.09C440.297 456.53 435.247 457.93 430 459.29C424.72 460.623 419.26 461.923 413.62 463.19C407.98 464.457 402.107 465.597 396 466.61C388.24 467.983 380.6 469.143 373.08 470.09C365.56 471.037 358.12 471.813 350.76 472.42C343.427 473.02 336.277 473.45 329.31 473.71C322.343 473.97 315.57 474.103 308.99 474.11C308.43 472.723 307.88 471.263 307.34 469.73C306.8 468.197 306.28 466.597 305.78 464.93C305.28 463.27 304.81 461.54 304.37 459.74C303.93 457.94 303.53 456.077 303.17 454.15C302.61 451.15 302.17 448.32 301.91 445.55C301.65 442.78 301.46 440.14 301.38 437.61C301.3 435.08 301.32 432.69 301.38 430.43C301.44 428.17 301.6 426.06 301.79 424.09C299.66 423.54 297.38 422.88 294.97 422.09C292.56 421.3 289.97 420.38 287.4 419.29C284.83 418.2 282.07 416.97 279.31 415.55C276.55 414.13 273.75 412.55 270.94 410.72C269.43 409.72 267.94 408.72 266.61 407.72C265.28 406.72 263.93 405.72 262.69 404.72C261.45 403.72 260.29 402.72 259.18 401.72C258.07 400.72 257.04 399.78 256.07 398.84" fill="#006CFF"/>
<path d="M1529.92 363.21C1520.46 338.99 1498.8 325.16 1470.08 325.16C1459.16 325.115 1448.34 327.255 1438.25 331.454C1428.17 335.653 1419.03 341.826 1411.37 349.61C1396.34 365.012 1387.15 385.166 1385.37 406.61L1385 410.83C1382.92 434.6 1389.89 457.14 1404.12 472.67C1416.86 486.57 1434.28 493.92 1454.48 493.92C1480.99 493.92 1503.84 481.24 1517.58 459.03L1516.25 474.25C1512.47 517.44 1494.44 533.5 1449.71 533.5C1434.68 533.336 1419.68 532.126 1404.82 529.88L1404.19 529.79L1402.39 550.3L1402.95 550.39C1417.46 552.704 1432.12 553.917 1446.81 554.02C1508.27 554.02 1534.19 531.43 1539.26 473.45L1551.71 331.21V330.57H1532.71L1529.92 363.21ZM1523.06 400.29L1521.76 415.09C1518.88 448.02 1493.02 471.92 1460.26 471.92C1444.83 471.92 1431.81 466.62 1422.62 456.6C1412.18 445.2 1407.36 428.24 1409.06 408.85C1412.31 371.66 1437.95 345.68 1471.41 345.68C1487.51 345.68 1501.59 351.38 1511.08 361.73C1520.25 371.74 1524.39 385.07 1523.06 400.29Z" fill="#003E80"/>
</g>
<defs>
<clipPath id="clip0_0_1">
<rect width="2437" height="1272" fill="white" transform="translate(233 104)"/>
</clipPath>
</defs>
</svg>
